<mxfile host="app.diagrams.net" agent="Mozilla/5.0 (Windows NT 10.0; Win64; x64) AppleWebKit/537.36 (KHTML, like Gecko) Chrome/138.0.0.0 Safari/537.36" version="27.2.0">
  <diagram name="Seite-1" id="Po55Y_BufcHnfAnhSpAb">
    <mxGraphModel dx="815" dy="425" grid="1" gridSize="10" guides="1" tooltips="1" connect="1" arrows="1" fold="1" page="1" pageScale="1" pageWidth="827" pageHeight="1169" math="1" shadow="0">
      <root>
        <mxCell id="0" />
        <mxCell id="1" parent="0" />
        <mxCell id="Q3NMNvED9xeLhpk1xbPH-19" value="&lt;svg style=&quot;vertical-align: -0.339ex;&quot; xmlns:xlink=&quot;http://www.w3.org/1999/xlink&quot; viewBox=&quot;0 -442 1036.6 592&quot; role=&quot;img&quot; height=&quot;1.339ex&quot; width=&quot;2.345ex&quot; xmlns=&quot;http://www.w3.org/2000/svg&quot;&gt;&lt;defs&gt;&lt;path d=&quot;M21 287Q22 293 24 303T36 341T56 388T89 425T135 442Q171 442 195 424T225 390T231 369Q231 367 232 367L243 378Q304 442 382 442Q436 442 469 415T503 336T465 179T427 52Q427 26 444 26Q450 26 453 27Q482 32 505 65T540 145Q542 153 560 153Q580 153 580 145Q580 144 576 130Q568 101 554 73T508 17T439 -10Q392 -10 371 17T350 73Q350 92 386 193T423 345Q423 404 379 404H374Q288 404 229 303L222 291L189 157Q156 26 151 16Q138 -11 108 -11Q95 -11 87 -5T76 7T74 17Q74 30 112 180T152 343Q153 348 153 366Q153 405 129 405Q91 405 66 305Q60 285 60 284Q58 278 41 278H27Q21 284 21 287Z&quot; id=&quot;MJX-1-TEX-I-1D45B&quot;&gt;&lt;/path&gt;&lt;path d=&quot;M213 578L200 573Q186 568 160 563T102 556H83V602H102Q149 604 189 617T245 641T273 663Q275 666 285 666Q294 666 302 660V361L303 61Q310 54 315 52T339 48T401 46H427V0H416Q395 3 257 3Q121 3 100 0H88V46H114Q136 46 152 46T177 47T193 50T201 52T207 57T213 61V578Z&quot; id=&quot;MJX-1-TEX-N-31&quot;&gt;&lt;/path&gt;&lt;/defs&gt;&lt;g transform=&quot;scale(1,-1)&quot; stroke-width=&quot;0&quot; fill=&quot;currentColor&quot; stroke=&quot;currentColor&quot;&gt;&lt;g data-mml-node=&quot;math&quot;&gt;&lt;g data-mml-node=&quot;msub&quot;&gt;&lt;g data-mml-node=&quot;mi&quot;&gt;&lt;use xlink:href=&quot;#MJX-1-TEX-I-1D45B&quot; data-c=&quot;1D45B&quot;&gt;&lt;/use&gt;&lt;/g&gt;&lt;g transform=&quot;translate(633,-150) scale(0.707)&quot; data-mml-node=&quot;mn&quot;&gt;&lt;use xlink:href=&quot;#MJX-1-TEX-N-31&quot; data-c=&quot;31&quot;&gt;&lt;/use&gt;&lt;/g&gt;&lt;/g&gt;&lt;/g&gt;&lt;/g&gt;&lt;/svg&gt;" style="ellipse;whiteSpace=wrap;html=1;aspect=fixed;fillColor=light-dark(#a5a5a5, #ededed);" vertex="1" parent="1">
          <mxGeometry x="100" y="100" width="30" height="30" as="geometry" />
        </mxCell>
        <mxCell id="Q3NMNvED9xeLhpk1xbPH-22" value="$$n_2$$" style="ellipse;whiteSpace=wrap;html=1;aspect=fixed;strokeColor=default;align=center;verticalAlign=middle;fontFamily=Helvetica;fontSize=12;fontColor=default;fillColor=default;" vertex="1" parent="1">
          <mxGeometry x="200" y="120" width="30" height="30" as="geometry" />
        </mxCell>
        <mxCell id="Q3NMNvED9xeLhpk1xbPH-23" value="$$n_3$$" style="ellipse;whiteSpace=wrap;html=1;aspect=fixed;strokeColor=default;align=center;verticalAlign=middle;fontFamily=Helvetica;fontSize=12;fontColor=default;fillColor=default;" vertex="1" parent="1">
          <mxGeometry x="240" y="70" width="30" height="30" as="geometry" />
        </mxCell>
        <mxCell id="Q3NMNvED9xeLhpk1xbPH-24" value="$$n_4$$" style="ellipse;whiteSpace=wrap;html=1;aspect=fixed;strokeColor=default;align=center;verticalAlign=middle;fontFamily=Helvetica;fontSize=12;fontColor=default;fillColor=light-dark(#f70146, #ededed);" vertex="1" parent="1">
          <mxGeometry x="180" y="50" width="30" height="30" as="geometry" />
        </mxCell>
        <mxCell id="Q3NMNvED9xeLhpk1xbPH-25" value="" style="endArrow=classic;startArrow=classic;html=1;rounded=0;fontFamily=Helvetica;fontSize=12;fontColor=default;exitX=0.949;exitY=0.69;exitDx=0;exitDy=0;exitPerimeter=0;entryX=-0.002;entryY=0.384;entryDx=0;entryDy=0;entryPerimeter=0;" edge="1" parent="1" source="Q3NMNvED9xeLhpk1xbPH-19" target="Q3NMNvED9xeLhpk1xbPH-22">
          <mxGeometry width="50" height="50" relative="1" as="geometry">
            <mxPoint x="180" y="120" as="sourcePoint" />
            <mxPoint x="230" y="70" as="targetPoint" />
          </mxGeometry>
        </mxCell>
        <mxCell id="Q3NMNvED9xeLhpk1xbPH-26" value="" style="endArrow=classic;startArrow=classic;html=1;rounded=0;fontFamily=Helvetica;fontSize=12;fontColor=default;exitX=0.912;exitY=0.193;exitDx=0;exitDy=0;exitPerimeter=0;entryX=0.038;entryY=0.73;entryDx=0;entryDy=0;entryPerimeter=0;" edge="1" parent="1" source="Q3NMNvED9xeLhpk1xbPH-19" target="Q3NMNvED9xeLhpk1xbPH-24">
          <mxGeometry width="50" height="50" relative="1" as="geometry">
            <mxPoint x="160" y="110" as="sourcePoint" />
            <mxPoint x="230" y="120" as="targetPoint" />
          </mxGeometry>
        </mxCell>
        <mxCell id="Q3NMNvED9xeLhpk1xbPH-27" value="" style="endArrow=classic;startArrow=classic;html=1;rounded=0;fontFamily=Helvetica;fontSize=12;fontColor=default;entryX=0.619;entryY=0.986;entryDx=0;entryDy=0;entryPerimeter=0;" edge="1" parent="1" source="Q3NMNvED9xeLhpk1xbPH-22" target="Q3NMNvED9xeLhpk1xbPH-24">
          <mxGeometry width="50" height="50" relative="1" as="geometry">
            <mxPoint x="160" y="112" as="sourcePoint" />
            <mxPoint x="212" y="80" as="targetPoint" />
          </mxGeometry>
        </mxCell>
        <mxCell id="Q3NMNvED9xeLhpk1xbPH-28" value="" style="endArrow=classic;startArrow=classic;html=1;rounded=0;fontFamily=Helvetica;fontSize=12;fontColor=default;exitX=0.001;exitY=0.369;exitDx=0;exitDy=0;exitPerimeter=0;entryX=0.989;entryY=0.656;entryDx=0;entryDy=0;entryPerimeter=0;" edge="1" parent="1" source="Q3NMNvED9xeLhpk1xbPH-23" target="Q3NMNvED9xeLhpk1xbPH-24">
          <mxGeometry width="50" height="50" relative="1" as="geometry">
            <mxPoint x="222" y="110" as="sourcePoint" />
            <mxPoint x="210" y="70" as="targetPoint" />
          </mxGeometry>
        </mxCell>
        <mxCell id="Q3NMNvED9xeLhpk1xbPH-29" value="" style="endArrow=classic;startArrow=classic;html=1;rounded=0;fontFamily=Helvetica;fontSize=12;fontColor=default;entryX=1;entryY=0;entryDx=0;entryDy=0;exitX=0.208;exitY=0.918;exitDx=0;exitDy=0;exitPerimeter=0;" edge="1" parent="1" source="Q3NMNvED9xeLhpk1xbPH-23" target="Q3NMNvED9xeLhpk1xbPH-22">
          <mxGeometry width="50" height="50" relative="1" as="geometry">
            <mxPoint x="250" y="91" as="sourcePoint" />
            <mxPoint x="220" y="80" as="targetPoint" />
          </mxGeometry>
        </mxCell>
        <mxCell id="Q3NMNvED9xeLhpk1xbPH-39" value="&lt;svg style=&quot;vertical-align: -0.339ex;&quot; xmlns:xlink=&quot;http://www.w3.org/1999/xlink&quot; viewBox=&quot;0 -442 1036.6 592&quot; role=&quot;img&quot; height=&quot;1.339ex&quot; width=&quot;2.345ex&quot; xmlns=&quot;http://www.w3.org/2000/svg&quot;&gt;&lt;defs&gt;&lt;path d=&quot;M21 287Q22 293 24 303T36 341T56 388T89 425T135 442Q171 442 195 424T225 390T231 369Q231 367 232 367L243 378Q304 442 382 442Q436 442 469 415T503 336T465 179T427 52Q427 26 444 26Q450 26 453 27Q482 32 505 65T540 145Q542 153 560 153Q580 153 580 145Q580 144 576 130Q568 101 554 73T508 17T439 -10Q392 -10 371 17T350 73Q350 92 386 193T423 345Q423 404 379 404H374Q288 404 229 303L222 291L189 157Q156 26 151 16Q138 -11 108 -11Q95 -11 87 -5T76 7T74 17Q74 30 112 180T152 343Q153 348 153 366Q153 405 129 405Q91 405 66 305Q60 285 60 284Q58 278 41 278H27Q21 284 21 287Z&quot; id=&quot;MJX-1-TEX-I-1D45B&quot;&gt;&lt;/path&gt;&lt;path d=&quot;M213 578L200 573Q186 568 160 563T102 556H83V602H102Q149 604 189 617T245 641T273 663Q275 666 285 666Q294 666 302 660V361L303 61Q310 54 315 52T339 48T401 46H427V0H416Q395 3 257 3Q121 3 100 0H88V46H114Q136 46 152 46T177 47T193 50T201 52T207 57T213 61V578Z&quot; id=&quot;MJX-1-TEX-N-31&quot;&gt;&lt;/path&gt;&lt;/defs&gt;&lt;g transform=&quot;scale(1,-1)&quot; stroke-width=&quot;0&quot; fill=&quot;currentColor&quot; stroke=&quot;currentColor&quot;&gt;&lt;g data-mml-node=&quot;math&quot;&gt;&lt;g data-mml-node=&quot;msub&quot;&gt;&lt;g data-mml-node=&quot;mi&quot;&gt;&lt;use xlink:href=&quot;#MJX-1-TEX-I-1D45B&quot; data-c=&quot;1D45B&quot;&gt;&lt;/use&gt;&lt;/g&gt;&lt;g transform=&quot;translate(633,-150) scale(0.707)&quot; data-mml-node=&quot;mn&quot;&gt;&lt;use xlink:href=&quot;#MJX-1-TEX-N-31&quot; data-c=&quot;31&quot;&gt;&lt;/use&gt;&lt;/g&gt;&lt;/g&gt;&lt;/g&gt;&lt;/g&gt;&lt;/svg&gt;" style="ellipse;whiteSpace=wrap;html=1;aspect=fixed;fillColor=light-dark(#B58492,#EDEDED);" vertex="1" parent="1">
          <mxGeometry x="290" y="100" width="30" height="30" as="geometry" />
        </mxCell>
        <mxCell id="Q3NMNvED9xeLhpk1xbPH-40" value="$$n_2$$" style="ellipse;whiteSpace=wrap;html=1;aspect=fixed;strokeColor=default;align=center;verticalAlign=middle;fontFamily=Helvetica;fontSize=12;fontColor=default;fillColor=#E898AE;" vertex="1" parent="1">
          <mxGeometry x="390" y="120" width="30" height="30" as="geometry" />
        </mxCell>
        <mxCell id="Q3NMNvED9xeLhpk1xbPH-41" value="$$n_3$$" style="ellipse;whiteSpace=wrap;html=1;aspect=fixed;strokeColor=default;align=center;verticalAlign=middle;fontFamily=Helvetica;fontSize=12;fontColor=default;fillColor=light-dark(#FB80A2,#FEE6ED);" vertex="1" parent="1">
          <mxGeometry x="430" y="70" width="30" height="30" as="geometry" />
        </mxCell>
        <mxCell id="Q3NMNvED9xeLhpk1xbPH-42" value="$$n_4$$" style="ellipse;whiteSpace=wrap;html=1;aspect=fixed;strokeColor=default;align=center;verticalAlign=middle;fontFamily=Helvetica;fontSize=12;fontColor=default;fillColor=light-dark(#E22A5E,#EDEDED);" vertex="1" parent="1">
          <mxGeometry x="370" y="50" width="30" height="30" as="geometry" />
        </mxCell>
        <mxCell id="Q3NMNvED9xeLhpk1xbPH-43" value="" style="endArrow=classic;startArrow=classic;html=1;rounded=0;fontFamily=Helvetica;fontSize=12;fontColor=default;exitX=0.949;exitY=0.69;exitDx=0;exitDy=0;exitPerimeter=0;entryX=-0.002;entryY=0.384;entryDx=0;entryDy=0;entryPerimeter=0;" edge="1" parent="1" source="Q3NMNvED9xeLhpk1xbPH-39" target="Q3NMNvED9xeLhpk1xbPH-40">
          <mxGeometry width="50" height="50" relative="1" as="geometry">
            <mxPoint x="370" y="120" as="sourcePoint" />
            <mxPoint x="420" y="70" as="targetPoint" />
          </mxGeometry>
        </mxCell>
        <mxCell id="Q3NMNvED9xeLhpk1xbPH-44" value="" style="endArrow=classic;startArrow=classic;html=1;rounded=0;fontFamily=Helvetica;fontSize=12;fontColor=default;exitX=0.912;exitY=0.193;exitDx=0;exitDy=0;exitPerimeter=0;entryX=0.038;entryY=0.73;entryDx=0;entryDy=0;entryPerimeter=0;" edge="1" parent="1" source="Q3NMNvED9xeLhpk1xbPH-39" target="Q3NMNvED9xeLhpk1xbPH-42">
          <mxGeometry width="50" height="50" relative="1" as="geometry">
            <mxPoint x="350" y="110" as="sourcePoint" />
            <mxPoint x="420" y="120" as="targetPoint" />
          </mxGeometry>
        </mxCell>
        <mxCell id="Q3NMNvED9xeLhpk1xbPH-45" value="" style="endArrow=classic;startArrow=classic;html=1;rounded=0;fontFamily=Helvetica;fontSize=12;fontColor=default;entryX=0.619;entryY=0.986;entryDx=0;entryDy=0;entryPerimeter=0;" edge="1" parent="1" source="Q3NMNvED9xeLhpk1xbPH-40" target="Q3NMNvED9xeLhpk1xbPH-42">
          <mxGeometry width="50" height="50" relative="1" as="geometry">
            <mxPoint x="350" y="112" as="sourcePoint" />
            <mxPoint x="402" y="80" as="targetPoint" />
          </mxGeometry>
        </mxCell>
        <mxCell id="Q3NMNvED9xeLhpk1xbPH-46" value="" style="endArrow=classic;startArrow=classic;html=1;rounded=0;fontFamily=Helvetica;fontSize=12;fontColor=default;exitX=0.001;exitY=0.369;exitDx=0;exitDy=0;exitPerimeter=0;entryX=0.989;entryY=0.656;entryDx=0;entryDy=0;entryPerimeter=0;" edge="1" parent="1" source="Q3NMNvED9xeLhpk1xbPH-41" target="Q3NMNvED9xeLhpk1xbPH-42">
          <mxGeometry width="50" height="50" relative="1" as="geometry">
            <mxPoint x="412" y="110" as="sourcePoint" />
            <mxPoint x="400" y="70" as="targetPoint" />
          </mxGeometry>
        </mxCell>
        <mxCell id="Q3NMNvED9xeLhpk1xbPH-47" value="" style="endArrow=classic;startArrow=classic;html=1;rounded=0;fontFamily=Helvetica;fontSize=12;fontColor=default;entryX=1;entryY=0;entryDx=0;entryDy=0;exitX=0.208;exitY=0.918;exitDx=0;exitDy=0;exitPerimeter=0;" edge="1" parent="1" source="Q3NMNvED9xeLhpk1xbPH-41" target="Q3NMNvED9xeLhpk1xbPH-40">
          <mxGeometry width="50" height="50" relative="1" as="geometry">
            <mxPoint x="440" y="91" as="sourcePoint" />
            <mxPoint x="410" y="80" as="targetPoint" />
          </mxGeometry>
        </mxCell>
        <mxCell id="Q3NMNvED9xeLhpk1xbPH-48" value="" style="endArrow=classic;html=1;rounded=0;fontFamily=Helvetica;fontSize=12;fontColor=default;" edge="1" parent="1">
          <mxGeometry width="50" height="50" relative="1" as="geometry">
            <mxPoint x="160" y="170" as="sourcePoint" />
            <mxPoint x="600" y="170" as="targetPoint" />
          </mxGeometry>
        </mxCell>
        <mxCell id="Q3NMNvED9xeLhpk1xbPH-49" value="$$\text{message passing steps}$$" style="edgeLabel;html=1;align=center;verticalAlign=middle;resizable=0;points=[];strokeColor=default;fontFamily=Helvetica;fontSize=12;fontColor=default;fillColor=default;labelBackgroundColor=none;" vertex="1" connectable="0" parent="Q3NMNvED9xeLhpk1xbPH-48">
          <mxGeometry x="-0.12" y="1" relative="1" as="geometry">
            <mxPoint x="31" y="21" as="offset" />
          </mxGeometry>
        </mxCell>
        <mxCell id="Q3NMNvED9xeLhpk1xbPH-50" value="&lt;svg style=&quot;vertical-align: -0.339ex;&quot; xmlns:xlink=&quot;http://www.w3.org/1999/xlink&quot; viewBox=&quot;0 -442 1036.6 592&quot; role=&quot;img&quot; height=&quot;1.339ex&quot; width=&quot;2.345ex&quot; xmlns=&quot;http://www.w3.org/2000/svg&quot;&gt;&lt;defs&gt;&lt;path d=&quot;M21 287Q22 293 24 303T36 341T56 388T89 425T135 442Q171 442 195 424T225 390T231 369Q231 367 232 367L243 378Q304 442 382 442Q436 442 469 415T503 336T465 179T427 52Q427 26 444 26Q450 26 453 27Q482 32 505 65T540 145Q542 153 560 153Q580 153 580 145Q580 144 576 130Q568 101 554 73T508 17T439 -10Q392 -10 371 17T350 73Q350 92 386 193T423 345Q423 404 379 404H374Q288 404 229 303L222 291L189 157Q156 26 151 16Q138 -11 108 -11Q95 -11 87 -5T76 7T74 17Q74 30 112 180T152 343Q153 348 153 366Q153 405 129 405Q91 405 66 305Q60 285 60 284Q58 278 41 278H27Q21 284 21 287Z&quot; id=&quot;MJX-1-TEX-I-1D45B&quot;&gt;&lt;/path&gt;&lt;path d=&quot;M213 578L200 573Q186 568 160 563T102 556H83V602H102Q149 604 189 617T245 641T273 663Q275 666 285 666Q294 666 302 660V361L303 61Q310 54 315 52T339 48T401 46H427V0H416Q395 3 257 3Q121 3 100 0H88V46H114Q136 46 152 46T177 47T193 50T201 52T207 57T213 61V578Z&quot; id=&quot;MJX-1-TEX-N-31&quot;&gt;&lt;/path&gt;&lt;/defs&gt;&lt;g transform=&quot;scale(1,-1)&quot; stroke-width=&quot;0&quot; fill=&quot;currentColor&quot; stroke=&quot;currentColor&quot;&gt;&lt;g data-mml-node=&quot;math&quot;&gt;&lt;g data-mml-node=&quot;msub&quot;&gt;&lt;g data-mml-node=&quot;mi&quot;&gt;&lt;use xlink:href=&quot;#MJX-1-TEX-I-1D45B&quot; data-c=&quot;1D45B&quot;&gt;&lt;/use&gt;&lt;/g&gt;&lt;g transform=&quot;translate(633,-150) scale(0.707)&quot; data-mml-node=&quot;mn&quot;&gt;&lt;use xlink:href=&quot;#MJX-1-TEX-N-31&quot; data-c=&quot;31&quot;&gt;&lt;/use&gt;&lt;/g&gt;&lt;/g&gt;&lt;/g&gt;&lt;/g&gt;&lt;/svg&gt;" style="ellipse;whiteSpace=wrap;html=1;aspect=fixed;fillColor=light-dark(#E396AB,#EDEDED);" vertex="1" parent="1">
          <mxGeometry x="479.9957142857142" y="100" width="30" height="30" as="geometry" />
        </mxCell>
        <mxCell id="Q3NMNvED9xeLhpk1xbPH-51" value="$$n_2$$" style="ellipse;whiteSpace=wrap;html=1;aspect=fixed;strokeColor=default;align=center;verticalAlign=middle;fontFamily=Helvetica;fontSize=12;fontColor=default;fillColor=#E396AB;" vertex="1" parent="1">
          <mxGeometry x="579.9957142857143" y="120" width="30" height="30" as="geometry" />
        </mxCell>
        <mxCell id="Q3NMNvED9xeLhpk1xbPH-52" value="$$n_3$$" style="ellipse;whiteSpace=wrap;html=1;aspect=fixed;strokeColor=default;align=center;verticalAlign=middle;fontFamily=Helvetica;fontSize=12;fontColor=default;fillColor=light-dark(#E56186,#FEE6ED);" vertex="1" parent="1">
          <mxGeometry x="619.9957142857143" y="70" width="30" height="30" as="geometry" />
        </mxCell>
        <mxCell id="Q3NMNvED9xeLhpk1xbPH-53" value="$$n_4$$" style="ellipse;whiteSpace=wrap;html=1;aspect=fixed;strokeColor=default;align=center;verticalAlign=middle;fontFamily=Helvetica;fontSize=12;fontColor=default;fillColor=light-dark(#CE5275,#EDEDED);" vertex="1" parent="1">
          <mxGeometry x="559.9957142857143" y="50" width="30" height="30" as="geometry" />
        </mxCell>
        <mxCell id="Q3NMNvED9xeLhpk1xbPH-54" value="" style="endArrow=classic;startArrow=classic;html=1;rounded=0;fontFamily=Helvetica;fontSize=12;fontColor=default;exitX=0.949;exitY=0.69;exitDx=0;exitDy=0;exitPerimeter=0;entryX=-0.002;entryY=0.384;entryDx=0;entryDy=0;entryPerimeter=0;" edge="1" parent="1" source="Q3NMNvED9xeLhpk1xbPH-50" target="Q3NMNvED9xeLhpk1xbPH-51">
          <mxGeometry width="50" height="50" relative="1" as="geometry">
            <mxPoint x="559.9957142857143" y="120" as="sourcePoint" />
            <mxPoint x="609.9957142857143" y="70" as="targetPoint" />
          </mxGeometry>
        </mxCell>
        <mxCell id="Q3NMNvED9xeLhpk1xbPH-55" value="" style="endArrow=classic;startArrow=classic;html=1;rounded=0;fontFamily=Helvetica;fontSize=12;fontColor=default;exitX=0.912;exitY=0.193;exitDx=0;exitDy=0;exitPerimeter=0;entryX=0.038;entryY=0.73;entryDx=0;entryDy=0;entryPerimeter=0;" edge="1" parent="1" source="Q3NMNvED9xeLhpk1xbPH-50" target="Q3NMNvED9xeLhpk1xbPH-53">
          <mxGeometry width="50" height="50" relative="1" as="geometry">
            <mxPoint x="539.9957142857143" y="110" as="sourcePoint" />
            <mxPoint x="609.9957142857143" y="120" as="targetPoint" />
          </mxGeometry>
        </mxCell>
        <mxCell id="Q3NMNvED9xeLhpk1xbPH-56" value="" style="endArrow=classic;startArrow=classic;html=1;rounded=0;fontFamily=Helvetica;fontSize=12;fontColor=default;entryX=0.619;entryY=0.986;entryDx=0;entryDy=0;entryPerimeter=0;" edge="1" parent="1" source="Q3NMNvED9xeLhpk1xbPH-51" target="Q3NMNvED9xeLhpk1xbPH-53">
          <mxGeometry width="50" height="50" relative="1" as="geometry">
            <mxPoint x="539.9957142857143" y="112" as="sourcePoint" />
            <mxPoint x="591.9957142857143" y="80" as="targetPoint" />
          </mxGeometry>
        </mxCell>
        <mxCell id="Q3NMNvED9xeLhpk1xbPH-57" value="" style="endArrow=classic;startArrow=classic;html=1;rounded=0;fontFamily=Helvetica;fontSize=12;fontColor=default;exitX=0.001;exitY=0.369;exitDx=0;exitDy=0;exitPerimeter=0;entryX=0.989;entryY=0.656;entryDx=0;entryDy=0;entryPerimeter=0;" edge="1" parent="1" source="Q3NMNvED9xeLhpk1xbPH-52" target="Q3NMNvED9xeLhpk1xbPH-53">
          <mxGeometry width="50" height="50" relative="1" as="geometry">
            <mxPoint x="601.9957142857143" y="110" as="sourcePoint" />
            <mxPoint x="589.9957142857143" y="70" as="targetPoint" />
          </mxGeometry>
        </mxCell>
        <mxCell id="Q3NMNvED9xeLhpk1xbPH-58" value="" style="endArrow=classic;startArrow=classic;html=1;rounded=0;fontFamily=Helvetica;fontSize=12;fontColor=default;entryX=1;entryY=0;entryDx=0;entryDy=0;exitX=0.208;exitY=0.918;exitDx=0;exitDy=0;exitPerimeter=0;" edge="1" parent="1" source="Q3NMNvED9xeLhpk1xbPH-52" target="Q3NMNvED9xeLhpk1xbPH-51">
          <mxGeometry width="50" height="50" relative="1" as="geometry">
            <mxPoint x="629.9957142857143" y="91" as="sourcePoint" />
            <mxPoint x="599.9957142857143" y="80" as="targetPoint" />
          </mxGeometry>
        </mxCell>
      </root>
    </mxGraphModel>
  </diagram>
</mxfile>
